<?xml version="1.0" encoding="utf-8"?>
<!-- Generator: Adobe Illustrator 19.0.1, SVG Export Plug-In . SVG Version: 6.00 Build 0)  -->
<svg version="1.1" id="Icon" xmlns="http://www.w3.org/2000/svg" xmlns:xlink="http://www.w3.org/1999/xlink"
	 viewBox="60 70 130 100" xml:space="preserve" fill="#A9A9A9">
<pattern id="Òî_xF7_å_xF7_íûé_óçîð__x22_Ïîëüêà_x22_">
	<g>
		<polygon points="71.1,-1.9 2.1,-1.9 2.1,-70.9 71.1,-70.9 "/>
		<g>
			<path d="M69.4-64c0,0.1,0,0.1,0,0.2c-0.1,0.1-0.1,0.1-0.2,0.1c-0.1,0.1-0.1,0.3-0.1,0.4c-0.2,0.1,0,0.2,0,0.3
				c0,0,0,0.1,0,0.2c0,0.1,0,0.3,0.1,0.4c0.1,0.2,0.3,0.4,0.4,0.5c0.2,0.1,0.4,0.6,0.6,0.6c0.2,0,0.4-0.1,0.5-0.1
				c0.2,0,0.4,0,0.6-0.1c0.2-0.1,0.1-0.3,0.3-0.5c0.1-0.1,0.3,0,0.4-0.1c0.2-0.1,0.3-0.3,0.4-0.5c0-0.1,0-0.1,0-0.2
				c0-0.1,0.1-0.2,0.1-0.3c0-0.1-0.1-0.1-0.1-0.2c0-0.1,0-0.2,0-0.3c0-0.2,0-0.4-0.1-0.5c-0.4-0.7-1.2-0.9-2-0.8
				c-0.2,0-0.3,0.1-0.4,0.2c-0.2,0.1-0.1,0.2-0.3,0.2c-0.1,0-0.2,0.1-0.2,0.2C69.4-64,69.4-64.1,69.4-64C69.4-64,69.4-64,69.4-64"
			/>
		</g>
	</g>
</pattern>
<g>
	<path d="M160.9,113.3l-13-22.2c-3.3-5.7-9.5-9.2-16.1-9.2H93c-8.2,0-15.4,5.3-17.8,13.1l-5.8,18.7c-4,1.1-6.9,4.8-6.9,9.1v22.1
		c0,5.2,4.2,9.5,9.5,9.5h2.6c0.3,0,0.5-0.2,0.5-0.5c0.3-9.1,7.8-16.5,17-16.5c9.2,0,16.7,7.3,17,16.5c0,0.3,0.2,0.5,0.5,0.5h33.2
		c0.3,0,0.5-0.2,0.5-0.5c0.3-9.1,7.8-16.5,17-16.5c9.2,0,16.7,7.3,17,16.5c0,0.3,0.2,0.5,0.5,0.5c5.2,0,9.5-4.2,9.5-9.5v-3.2
		C187.5,126.6,175.8,114.3,160.9,113.3z M140.3,95.5l10.4,17.7h-35V90.6h16.1C135.3,90.6,138.6,92.5,140.3,95.5z M83.6,97.6
		c1.3-4.1,5.1-6.9,9.4-6.9h13.9v22.6H78.7L83.6,97.6z"/>
	<ellipse cx="92" cy="154.3" rx="13.9" ry="13.8"/>
	<ellipse cx="160.5" cy="154.3" rx="13.9" ry="13.8"/>
</g>
</svg>
